<svg width="453" height="524" fill="none" xmlns="http://www.w3.org/2000/svg"><path opacity=".2" d="M140.307 63.336c-24.378 10.335-51.697 22.182-62.96 48.733-18.157 42.683 23.62 76.208 3.782 118.387-11.516 24.367-27.572 17.561-50.352 46.045-27.067 33.945-42.87 91.92-19.25 137.46 17.99 34.785 51.781 48.481 80.53 60.16 9.919 4.033 75.569 29.744 138.025 8.234 14.963-5.125 21.015-12.519 33.792-11.259 30.934 3.193 35.557 44.448 63.801 51.17 23.705 5.629 51.276-16.133 68.676-37.978 3.447-4.369 6.557-8.739 9.163-12.94 15.131-29.155 27.319-62.848 30.513-96.625.757-8.487 1.009-16.889.589-25.291-1.597-21.51-5.968-42.431-19.166-61.504-23.704-36.55-59.766-65.202-59.934-110.742-1.009-6.889-1.681-14.031-2.354-21.257-3.446-36.298-6.388-75.2-42.281-98.39-47.494-30.416-102.889-18.233-150.719-2.1-7.901 2.436-15.131 5.04-21.855 7.897z" fill="#fff" fill-opacity=".7"/><path opacity=".3" d="M149.372 80.34c-22.224 9.427-47.131 20.232-57.4 44.449-16.553 38.93 21.535 69.507 3.449 107.978-10.499 22.224-25.136 16.017-45.904 41.996-24.677 30.961-39.084 83.838-17.55 125.375 16.4 31.726 47.207 44.218 73.417 54.87 9.042 3.679 68.894 27.129 125.834 7.51 13.641-4.674 19.159-11.418 30.807-10.269 28.202 2.912 32.417 40.54 58.166 46.671 21.611 5.134 46.747-14.714 62.61-34.639 3.143-3.985 5.978-7.97 8.354-11.802 13.794-26.592 24.906-57.323 27.818-88.13.69-7.74.92-15.403.537-23.067-1.457-19.618-5.442-38.701-17.473-56.097-21.611-33.336-54.488-59.468-54.641-101.004-.919-6.284-1.532-12.798-2.146-19.389-3.142-33.106-5.824-68.588-38.547-89.74-43.299-27.741-93.801-16.629-137.406-1.915-7.204 2.222-13.794 4.598-19.925 7.204z" fill="#fff" fill-opacity=".6"/><path opacity=".3" d="M376.625 147.039c-12.609 8.688 22.232 94.647 36.216 91.952 8.741-1.665 16.748-39.434-1.676-67.209-9.634-14.633-28.31-29.045-34.54-24.743z" fill="#fff"/><path opacity=".2" d="M369.967 131.467c-16.697 11.506 29.441 125.346 47.959 121.777 11.574-2.205 22.178-52.224-2.22-89.008-12.757-19.38-37.489-38.466-45.739-32.769z" fill="#fff"/><path opacity=".4" d="M363.842 115.822c-19.868 13.693 35.033 149.185 57.067 144.938 13.772-2.625 26.388-62.157-2.643-105.937-15.18-23.066-44.608-45.782-54.424-39.001z" fill="#fff"/><path opacity=".3" d="M156.341 105.994c-18.775 7.964-39.815 17.093-48.491 37.553-13.983 32.89 18.193 58.723 2.914 91.225-8.87 18.776-21.235 13.532-38.78 35.481-20.846 26.157-33.017 70.831-14.825 105.922 13.854 26.805 39.88 37.358 62.021 46.358 7.639 3.107 58.202 22.92 106.304 6.345 11.524-3.95 16.185-9.647 26.025-8.676 23.825 2.46 27.386 34.25 49.138 39.43 18.257 4.338 39.492-12.431 52.893-29.265 2.655-3.367 5.05-6.734 7.057-9.971 11.653-22.466 21.041-48.429 23.501-74.457.583-6.539.777-13.013.453-19.488-1.23-16.575-4.596-32.696-14.761-47.393-18.257-28.164-46.03-50.242-46.16-85.334-.777-5.309-1.294-10.812-1.812-16.381-2.655-27.969-4.921-57.946-32.565-75.816-36.578-23.438-79.242-14.05-116.079-1.619-6.086 1.878-11.654 3.885-16.833 6.086z" fill="#fff" fill-opacity=".7"/><mask id="a" style="mask-type:alpha" maskUnits="userSpaceOnUse" x="35" y="0" width="418" height="461"><path d="M118 8.5c-20.445 5.936-56.884-3.747-65.802 17.266-14.376 33.78-.521 126.476-16.228 159.857-9.118 19.284 49.505 57.093 31.469 79.635-21.43 26.865-30.64 70.201-11.939 106.242 9 25.5 37.695 40.915 60.456 50.158C123.809 424.85 175.551 446.023 225 429c7.465-2.556 16-7 18-8 5-1 6.03-1.163 9.5-.5 23.699 4.528 26.532 35.264 49 39.5 16.5 3.5 41.603-13.007 55.38-30.296 2.728-3.458 5.191-6.916 7.254-10.241 11.98-23.074 21.63-49.739 24.159-76.471.599-6.716.799-13.365.466-20.015-1.265-17.023 61.136-24.69 50.687-39.785-18.768-28.926 13.067-45.3 13.067-45.3l-13.067-64.029L364.134 77.6S274.55 3 205.5 3C201 3 169.667-6.5 118 8.5z" fill="#65BDFF"/></mask><g mask="url(#a)"><path d="M302.683 379.781H105.814l7.363-31.539c3.817-16.36 23.995-28.266 47.626-28.266h86.891c23.632 0 43.81 11.997 47.627 28.266l7.362 31.539z" fill="#FF5B79"/><path d="M302.683 379.781H105.814l7.363-31.539c3.817-16.36 23.995-28.266 47.626-28.266h86.891c23.632 0 43.81 11.997 47.627 28.266l7.362 31.539z" stroke="#333" stroke-width="6" stroke-miterlimit="10" stroke-linecap="round" stroke-linejoin="round"/><path d="M275.144 355.786h-24.722c-9.453 0-17.088-7.635-17.088-17.087v-39.174h-58.17v39.174c0 9.452-7.634 17.087-17.087 17.087h-24.722c-36.175 0-65.441 29.267-65.441 65.441v53.353h272.671v-53.353c0-36.174-29.358-65.441-65.441-65.441z" fill="#FBE3D5"/><path d="M203.156 317.522c16.666 0 30.176-7.934 30.176-17.723 0-9.788-13.51-17.724-30.176-17.724-16.665 0-30.175 7.936-30.175 17.724 0 9.789 13.51 17.723 30.175 17.723z" fill="#D5B6A5"/><path d="M340.585 421.228v53.353H67.914v-53.353c0-36.174 29.266-65.441 65.441-65.441h24.722c.636 0 1.272 0 1.909-.091 6.725 18.269 24.358 31.357 44.99 31.357s38.174-12.997 44.9-31.266h25.268c36.083 0 65.441 29.267 65.441 65.441z" fill="#FF5B79"/><path d="M178.801 424.5c-25.54 0-46.354-20.814-46.354-46.354v-22.541h145.334v22.541c0 25.54-20.814 46.354-46.354 46.354h-52.626z" fill="#AA5454"/><path d="M275.144 355.786h-24.722c-9.453 0-17.088-7.635-17.088-17.087v-39.174h-58.17v39.174c0 9.452-7.634 17.087-17.087 17.087h-24.722c-36.175 0-65.441 29.267-65.441 65.441v53.353h272.671v-53.353c0-36.174-29.358-65.441-65.441-65.441z" stroke="#333" stroke-width="6" stroke-miterlimit="10" stroke-linecap="round" stroke-linejoin="round"/><path d="M267.419 80.752c-1-13.816 2.636-24.268 9.089-26.54 6.362-2.273 13.815 3.999 16.36 6.18 24.086 20.178 9.271 87.709 5.181 105.07l-30.63-84.71z" fill="#BCAFAA"/><path d="M265.6 80.753c-1-13.816 2.635-24.268 9.089-26.54 1.272-.455 2.545-.546 3.817-.455m1.82-.001c5.272.455 10.453 4.818 12.543 6.635 24.086 20.178 9.271 87.71 5.181 105.07l-30.63-84.62" stroke="#333" stroke-width="6" stroke-miterlimit="10" stroke-linecap="round" stroke-linejoin="round"/><path d="M109.27 171.643v-30.63c0-34.811 30.812-25.813 65.532-25.813l64.26 2.454c20.177 0 32.357-30.085 43.809-15.361-.364-10.725-2.363-24.358-8.635-38.628-3.454-7.999-17.905-38.265-51.171-52.171-11.271-4.727-20.632-5.817-26.358-6.454-21.905-2.454-30.903-6.362-68.532 4.09-23.813 6.545-40.9 18.451-41.173 23.632-.273 4.726 11.27 3.545 20.723 10.634 15.36 11.452-6.09 37.265-9.09 69.986-1.272 13.997-.09 33.629 10.635 58.261z" fill="#BCAFAA"/><path d="M278.509 75.299c-1.182-4.727-3.545-9.908-4.272-11.634-3.454-7.999-17.906-38.265-51.171-52.172-11.271-4.726-20.633-5.817-26.359-6.453-21.904-2.454-36.719-4.817-74.348 5.635-23.813 6.545-37.265 12.089-35.356 22.087 1.181 6.271 15.269 4.544 23.449 16.36 10.907 15.815-8.816 31.54-11.815 64.351-1.273 13.997-.091 33.629 10.634 58.26v-30.63c0-34.811 30.812-25.813 65.532-25.813l64.259 2.454c20.178 0 32.357-30.084 43.809-15.36" stroke="#333" stroke-width="6" stroke-miterlimit="10" stroke-linecap="round" stroke-linejoin="round"/><path d="M279.689 98.385c-4.545-4.908-11.362-6.999-17.906-5.635-16.269 3.454-36.083 5.453-57.533 5.453-22.359 0-42.992-2.181-59.715-5.908-6.545-1.454-13.452.546-17.997 5.454-10.634 11.27-17.178 26.449-17.178 43.173v77.62c0 49.808 40.446 90.254 90.254 90.254h6.544c49.808 0 90.255-40.446 90.255-90.254v-77.62c-.091-16.361-6.454-31.267-16.724-42.537z" fill="#FBE3D5"/><path d="M206.066 297.708h-6.544c-49.808 0-90.255-40.447-90.255-90.255v9.362c0 49.808 40.447 90.254 90.255 90.254h6.544c49.808 0 90.254-40.446 90.254-90.254v-9.362c0 49.808-40.446 90.255-90.254 90.255z" fill="#D5B6A5"/><path d="M209.157 223.268s9.18-2.818 13.452-1.454c3.09-13.361-6.362-25.54-6.362-25.54m11.272 65.532c-5.272 3.454-11.998 5.545-19.451 5.545-16.542 0-29.994-10.362-29.994-23.086" stroke="#333" stroke-width="6" stroke-miterlimit="10" stroke-linecap="round" stroke-linejoin="round"/><path d="M174.802 177.187c5.12 0 9.271-5.209 9.271-11.634 0-6.425-4.151-11.634-9.271-11.634-5.12 0-9.271 5.209-9.271 11.634 0 6.425 4.151 11.634 9.271 11.634zm68.712-.455c5.12 0 9.271-5.209 9.271-11.634 0-6.425-4.151-11.634-9.271-11.634-5.119 0-9.27 5.209-9.27 11.634 0 6.425 4.151 11.634 9.27 11.634z" fill="#333"/><path d="M261.783 92.84c-16.269 3.454-36.083 5.454-57.533 5.454-22.359 0-42.992-2.182-59.715-5.908-6.545-1.454-13.452.545-17.997 5.453-10.634 11.271-17.178 26.449-17.178 43.173v5.09c30.63 2.181 61.715 3.363 92.436 3.363 31.448 0 63.168-1.182 94.617-3.545v-4.908c0-16.451-6.272-31.357-16.633-42.627-4.636-4.909-11.453-6.999-17.997-5.545z" fill="#D5B6A5"/><path d="M279.689 98.385c-4.545-4.908-11.362-6.999-17.906-5.635-16.269 3.454-36.083 5.453-57.533 5.453-22.359 0-42.992-2.181-59.715-5.908-6.545-1.454-13.452.546-17.997 5.454-10.634 11.27-17.178 26.449-17.178 43.173v77.62c0 49.808 40.446 90.254 90.254 90.254h6.544c49.808 0 90.255-40.446 90.255-90.254v-77.62c-.091-16.361-6.454-31.267-16.724-42.537z" stroke="#333" stroke-width="6" stroke-miterlimit="10" stroke-linecap="round" stroke-linejoin="round"/><path d="M299.412 139.285a1670.378 1670.378 0 01-195.505 0c-4.544-.273-8.09-3.726-8.09-7.998v-20.723c0-4.636 4.273-8.271 9.272-7.999a1631.386 1631.386 0 00193.233 0c4.999-.272 9.271 3.363 9.271 7.999v20.723c0 4.272-3.545 7.725-8.181 7.998z" fill="#FF5B79"/><path opacity=".3" d="M298.322 102.657a1631.386 1631.386 0 01-193.233 0c-4.999-.272-9.271 3.363-9.271 7.999v6.908c0-4.636 4.272-8.271 9.271-7.999a1631.386 1631.386 0 00193.233 0c4.999-.272 9.271 3.363 9.271 7.999v-6.999c0-4.545-4.272-8.18-9.271-7.908z" fill="#444"/><path d="M299.412 139.285a1670.378 1670.378 0 01-195.505 0c-4.544-.273-8.09-3.726-8.09-7.998v-20.723c0-4.636 4.273-8.271 9.272-7.999a1631.386 1631.386 0 00193.233 0c4.999-.272 9.271 3.363 9.271 7.999v20.723c0 4.272-3.545 7.725-8.181 7.998z" stroke="#333" stroke-width="6" stroke-miterlimit="10" stroke-linecap="round" stroke-linejoin="round"/><path d="M274.235 62.12s18.723 0 21.995 35.538M169.437 18.13c38.628 1.999 74.712 21.267 79.075 54.806M143.079 21.037c4.999-1.545 11.361-3 17.905-2.908m11.635 20.723c20.905 3.363 47.99 6.635 58.079 41.083" stroke="#333" stroke-width="4" stroke-miterlimit="10" stroke-linecap="round" stroke-linejoin="round"/><path d="M201.702 278.075s5.181 3.09 14.543 0" stroke="#333" stroke-width="6" stroke-miterlimit="10" stroke-linecap="round" stroke-linejoin="round"/><path d="M159.804 230.357c9.437 0 17.087-7.65 17.087-17.087s-7.65-17.087-17.087-17.087-17.087 7.65-17.087 17.087 7.65 17.087 17.087 17.087zm90.164 0c9.438 0 17.088-7.65 17.088-17.087s-7.65-17.087-17.088-17.087c-9.437 0-17.087 7.65-17.087 17.087s7.65 17.087 17.087 17.087z" fill="#F5CFC4"/><path d="M106.725 194.456h1.818v-47.809h-1.818c-5.999 0-10.907 4.909-10.907 10.907v25.995c0 5.999 4.908 10.907 10.907 10.907z" fill="#FEF0E3"/><path d="M106.725 194.456h1.818v-47.809h-1.818c-5.999 0-10.907 4.909-10.907 10.907v25.995c0 5.999 4.908 10.907 10.907 10.907z" stroke="#333" stroke-width="6" stroke-miterlimit="10" stroke-linecap="round" stroke-linejoin="round"/><path d="M298.138 194.456h-1.818v-47.809h1.818c5.999 0 10.907 4.909 10.907 10.907v25.995c0 5.999-4.908 10.907-10.907 10.907z" fill="#FEF0E3"/><path d="M298.138 194.456h-1.818v-47.809h1.818c5.999 0 10.907 4.909 10.907 10.907v25.995c0 5.999-4.908 10.907-10.907 10.907z" stroke="#333" stroke-width="6" stroke-miterlimit="10" stroke-linecap="round" stroke-linejoin="round"/><path d="M231.425 417.228H178.8c-21.541 0-39.083-17.541-39.083-39.082v-36.357h130.791v36.357c0 21.632-17.451 39.082-39.083 39.082z" fill="#FF5B79"/><path d="M270.508 341.789v36.357c0 21.541-17.542 39.082-39.083 39.082H178.8c-21.541 0-39.083-17.541-39.083-39.082v-36.357" stroke="#333" stroke-width="6" stroke-miterlimit="10" stroke-linecap="round" stroke-linejoin="round"/><path d="M249.787 355.787c-6.725 18.269-24.358 31.266-44.899 31.266-20.633 0-38.265-13.088-44.991-31.357 8.544-.909 15.269-8.18 15.269-16.997v-3.181h58.17v3.181c0 9.18 7.272 16.724 16.451 17.088z" fill="#FBE3D5"/><path d="M243.607 354.332c-6.09 15.815-21.268 26.358-38.719 26.358-17.633 0-32.903-10.816-38.902-26.903-1.817.999-3.908 1.636-6.089 1.908 6.726 18.269 24.358 31.357 44.991 31.357 20.632 0 38.174-12.997 44.899-31.266-2.181-.091-4.271-.636-6.18-1.454z" fill="#EDD4C6"/><path d="M233.334 335.427v3.181c0 7.908 5.363 14.634 12.725 16.542 1.909.546 2.999 2.636 2.181 4.454-7.725 16.179-24.177 27.358-43.264 27.358-19.268 0-35.81-11.361-43.445-27.721a3.141 3.141 0 011.999-4.363c6.817-2.272 11.725-8.635 11.725-16.27v-3.181" stroke="#333" stroke-width="6" stroke-miterlimit="10" stroke-linecap="round" stroke-linejoin="round"/><path d="M158.166 349.879c4.908 21.268 23.904 37.174 46.717 37.174 22.814 0 41.81-15.906 46.718-37.174" stroke="#333" stroke-width="6" stroke-miterlimit="10" stroke-linecap="round" stroke-linejoin="round"/><path d="M171.255 401.323c4.015 0 7.271-1.871 7.271-4.181 0-2.308-3.256-4.181-7.271-4.181-4.016 0-7.272 1.873-7.272 4.181 0 2.31 3.256 4.181 7.272 4.181z" fill="#444"/><path d="M171.256 397.142v47.354" stroke="#333" stroke-width="8" stroke-miterlimit="10" stroke-linecap="round" stroke-linejoin="round"/><path d="M237.151 401.323c4.015 0 7.271-1.871 7.271-4.181 0-2.308-3.256-4.181-7.271-4.181-4.016 0-7.271 1.873-7.271 4.181 0 2.31 3.255 4.181 7.271 4.181z" fill="#444"/><path d="M237.151 397.142v34.629" stroke="#333" stroke-width="8" stroke-miterlimit="10" stroke-linecap="round" stroke-linejoin="round"/><path d="M173.892 457.039h-5.454c-3.454 0-5.999-3.181-5.181-6.544l2.364-10.544h11.088l2.363 10.544c.818 3.363-1.726 6.544-5.18 6.544z" fill="#FEF0E3"/><path d="M173.892 457.039h-5.454c-3.454 0-5.999-3.181-5.181-6.544l2.364-10.544h11.088l2.363 10.544c.818 3.363-1.726 6.544-5.18 6.544z" stroke="#4E5A7D" stroke-width="6" stroke-miterlimit="10" stroke-linecap="round" stroke-linejoin="round"/><path d="M239.879 448.495h-5.453c-3.454 0-5.999-3.182-5.181-6.545l2.363-10.543h11.089l2.363 10.543c.818 3.363-1.727 6.545-5.181 6.545z" fill="#FEF0E3"/><path d="M239.879 448.495h-5.453c-3.454 0-5.999-3.182-5.181-6.545l2.363-10.543h11.089l2.363 10.543c.818 3.363-1.727 6.545-5.181 6.545z" stroke="#444" stroke-width="6" stroke-miterlimit="10" stroke-linecap="round" stroke-linejoin="round"/><path opacity=".58" d="M196.979 352.06s2.909.273 6.181 3.636c0 0 3.817-3.636 7.089-3.636" stroke="#D5B6A5" stroke-width="6" stroke-miterlimit="10" stroke-linecap="round" stroke-linejoin="round"/><path d="M208.069 76.117s-2-11.452-22.178-17.724" stroke="#333" stroke-width="4" stroke-miterlimit="10" stroke-linecap="round" stroke-linejoin="round"/><path d="M123.445 439.951v34.63" stroke="#4E5A7D" stroke-width="6" stroke-miterlimit="10" stroke-linecap="round" stroke-linejoin="round"/><path d="M282.958 439.951v34.63" stroke="#333" stroke-width="6" stroke-miterlimit="10" stroke-linecap="round" stroke-linejoin="round"/></g></svg>